<svg xmlns="http://www.w3.org/2000/svg" viewBox="0 0 1600 900" fill="#000">
  <!-- Midnight: a clear crescent above layered, hand-shaped mountain ridges. -->
  <path opacity=".64" d="M1452 480c-36 2-62 34-55 68 8 36 49 50 79 29-27 2-49-18-51-40-2-24 10-45 27-57Z"/>
  <path opacity=".16" d="M0 780c85-6 147-43 219-35 68 8 105 20 166-10 76-37 135-29 207-7 91 28 168 40 252 18 95-25 165-68 224-60 58 8 106-73 155-104 28-18 58 35 89 47 39 14 60-15 88-12 49 4 90 56 126 62 29 5 46-15 74-12v233H0Z"/>
  <path opacity=".28" d="M0 836c110-28 206-8 308-34 80-21 120-60 201-44 102 20 151 55 248 43 86-11 158-35 219-64 67-33 109-7 161-28 69-27 126-96 158-91 31 6 54 66 91 85 48 24 95 10 131 16 28 5 54 15 83 12v169H0Z"/>
  <path opacity=".38" d="M0 881c163-18 284-35 445-24 169 12 293-12 444-11 131 1 194-24 270-54 71-28 111-3 180-9 99-8 163-39 261-34v151H0Z"/>
  <g opacity=".23" fill="none" stroke="#000" stroke-width="2" stroke-linecap="round">
    <path d="M1156 763c24-8 44-18 59-27m123 8c22 7 45 10 72 9m-504 108c42-1 77-4 108-9"/>
  </g>
</svg>
